HIERARCHY
ROOT Hips
{
	OFFSET 0.000000 0.000000 0.000000
	CHANNELS 6 Xposition Yposition Zposition Xrotation Yrotation Zrotation
	JOINT Chest
	{
		OFFSET 0.000000 0.009282 11.569106
		CHANNELS 3 Xrotation Yrotation Zrotation
		JOINT Chest2
		{
			OFFSET 0.000000 -0.016863 9.269641
			CHANNELS 3 Xrotation Yrotation Zrotation
			JOINT Chest3
			{
				OFFSET 0.000000 0.000000 8.374491
				CHANNELS 3 Xrotation Yrotation Zrotation
				JOINT Chest4
				{
					OFFSET 0.000000 0.000000 8.374493
					CHANNELS 3 Xrotation Yrotation Zrotation
					JOINT Neck
					{
						OFFSET 0.000000 -0.000001 12.152554
						CHANNELS 3 Xrotation Yrotation Zrotation
						JOINT Head
						{
							OFFSET 0.000000 -0.040100 7.802319
							CHANNELS 3 Xrotation Yrotation Zrotation
							End Site
							{
								OFFSET 0.000000 -0.020946 14.853096
							}
						}
					}
					JOINT RightCollar
					{
						OFFSET -2.894404 0.000000 6.791374
						CHANNELS 3 Xrotation Yrotation Zrotation
						JOINT RightShoulder
						{
							OFFSET -13.574684 0.000000 0.000000
							CHANNELS 3 Xrotation Yrotation Zrotation
							JOINT RightElbow
							{
								OFFSET -23.923903 0.000000 0.000000
								CHANNELS 3 Xrotation Yrotation Zrotation
								JOINT RightWrist
								{
									OFFSET -19.846718 -0.012765 0.000000
									CHANNELS 3 Xrotation Yrotation Zrotation
									End Site
									{
										OFFSET -14.973145 0.000000 0.000000
									}
								}
							}
						}
					}
					JOINT LeftCollar
					{
						OFFSET 2.894404 0.000000 6.791374
						CHANNELS 3 Xrotation Yrotation Zrotation
						JOINT LeftShoulder
						{
							OFFSET 13.574684 0.000000 0.000000
							CHANNELS 3 Xrotation Yrotation Zrotation
							JOINT LeftElbow
							{
								OFFSET 23.923903 0.000000 0.000000
								CHANNELS 3 Xrotation Yrotation Zrotation
								JOINT LeftWrist
								{
									OFFSET 19.846718 -0.012765 0.000000
									CHANNELS 3 Xrotation Yrotation Zrotation
									End Site
									{
										OFFSET 14.973145 0.000000 0.000000
									}
								}
							}
						}
					}
				}
			}
		}
	}
	JOINT RightHip
	{
		OFFSET -9.469263 -0.004642 0.045487
		CHANNELS 3 Xrotation Yrotation Zrotation
		JOINT RightKnee
		{
			OFFSET 0.000000 -0.002666 -40.478676
			CHANNELS 3 Xrotation Yrotation Zrotation
			JOINT RightAnkle
			{
				OFFSET 0.000000 -0.049110 -35.224068
				CHANNELS 3 Xrotation Yrotation Zrotation
				JOINT RightToe
				{
					OFFSET 0.000000 -12.539530 -6.151390
					CHANNELS 3 Xrotation Yrotation Zrotation
					End Site
					{
						OFFSET 0.000000 -5.044995 -1.291870
					}
				}
			}
		}
	}
	JOINT LeftHip
	{
		OFFSET 9.469263 -0.004642 0.045487
		CHANNELS 3 Xrotation Yrotation Zrotation
		JOINT LeftKnee
		{
			OFFSET 0.000000 -0.002666 -40.478676
			CHANNELS 3 Xrotation Yrotation Zrotation
			JOINT LeftAnkle
			{
				OFFSET 0.000000 -0.049110 -35.224068
				CHANNELS 3 Xrotation Yrotation Zrotation
				JOINT LeftToe
				{
					OFFSET 0.000000 -12.539530 -6.151390
					CHANNELS 3 Xrotation Yrotation Zrotation
					End Site
					{
						OFFSET 0.000000 -5.044995 -1.291870
					}
				}
			}
		}
	}
}
MOTION
Frames: 14
Frame Time: 0.016667
22.549665 -40.248260 83.194244 1.231370 1.005467 -107.948087 6.643118 0.310585 1.799313 2.908914 0.086913 0.745042 2.908919 0.086912 0.745041 2.181794 0.061640 0.559204 21.109726 -2.354500 -2.155175 2.961187 -3.679995 -4.632565 -4.653036 -9.745005 -2.407193 -2.734382 -46.486083 -12.360132 42.501504 -7.127887 21.919136 -27.308616 33.365170 42.071940 -2.177993 8.254311 -3.341972 -27.801944 36.916066 21.749684 49.252579 8.849360 -44.177025 -4.827811 -24.824686 -53.457684 -4.243279 -3.743634 1.507254 9.209760 -2.477407 -12.103961 -1.198807 -0.641908 11.721980 -0.309139 -0.047284 -0.002039 3.715370 5.072937 10.210749 -0.083083 3.604196 17.571362 -3.165785 -4.326071 -4.922330 -0.088620 -0.775870 0.134412 
22.549665 -40.248260 83.194244 1.231370 1.005467 -107.948087 6.643118 0.310585 1.799313 2.908914 0.086913 0.745042 2.908919 0.086912 0.745041 2.181794 0.061640 0.559204 21.109726 -2.354500 -2.155175 2.961187 -3.679995 -4.632565 -4.653036 -9.745005 -2.407193 -2.734382 -46.486083 -12.360132 42.501504 -7.127887 21.919136 -27.308616 33.365170 42.071940 -2.177993 8.254311 -3.341972 -27.801944 36.916066 21.749684 49.252579 8.849360 -44.177025 -4.827811 -24.824686 -53.457684 -4.243279 -3.743634 1.507254 9.209760 -2.477407 -12.103961 -1.198807 -0.641908 11.721980 -0.309139 -0.047284 -0.002039 3.715370 5.072937 10.210749 -0.083083 3.604196 17.571362 -3.165785 -4.326071 -4.922330 -0.088620 -0.775870 0.134412 
22.673296 -40.208076 83.194023 1.053562 1.002974 -107.492254 6.685924 0.355615 1.684331 2.920173 0.096908 0.686428 2.920168 0.096908 0.686430 2.190240 0.069401 0.515297 21.198189 -2.326731 -2.190943 3.126609 -3.621711 -4.687213 -5.010698 -9.861616 -2.324042 -3.636694 -47.037501 -13.412699 37.884204 -8.604632 19.649500 -26.193868 32.328139 38.513794 -2.064904 8.171066 -3.380670 -29.650148 36.815700 21.297093 48.023914 9.573566 -44.987495 -5.244737 -24.850255 -52.568011 -4.454045 -3.584723 1.621560 9.449007 -2.575587 -12.190756 -1.425446 -0.563014 11.376647 -0.207193 -0.087704 0.001741 3.565878 5.128448 10.279380 -0.030744 3.593456 17.460371 -2.975632 -4.049376 -5.342981 -0.086654 -0.817925 0.125290 
22.779518 -40.177792 83.189713 0.865641 1.014985 -107.055552 6.750031 0.419322 1.605505 2.930778 0.112335 0.632227 2.930779 0.112334 0.632222 2.198199 0.081221 0.474716 21.264337 -2.301650 -2.236121 3.250420 -3.564955 -4.760594 -4.855173 -9.839249 -2.379185 -5.471630 -47.743893 -14.881836 33.679847 -9.562382 17.576764 -24.555881 31.270392 35.197283 -1.832334 8.031299 -3.396783 -31.484126 36.909605 20.654787 46.961468 10.268635 -45.860779 -5.735158 -24.938547 -51.866158 -4.686901 -3.390615 1.745246 9.749167 -2.753693 -12.322089 -1.684267 -0.475681 10.945529 -0.132338 -0.088217 -0.007623 3.431370 5.206086 10.325422 0.023123 3.592772 17.309499 -2.795852 -3.776306 -5.751098 -0.070046 -0.864824 0.146334 
22.887844 -40.146088 83.182564 0.680292 0.998874 -106.599643 6.772392 0.439056 1.487027 2.930880 0.117531 0.563658 2.930888 0.117531 0.563659 2.198270 0.085446 0.423317 21.335928 -2.233435 -2.272611 3.386378 -3.432056 -4.805396 -4.606432 -9.754056 -2.466700 -7.283424 -48.150764 -16.260121 30.015591 -10.524370 15.678850 -23.384263 30.309606 32.826234 -1.622205 7.971143 -3.367000 -33.159937 37.165464 19.866379 46.028337 10.928143 -46.683657 -6.301725 -25.018805 -51.284441 -4.979786 -3.180792 1.757868 10.130300 -2.955149 -12.520386 -1.974958 -0.389356 10.651811 -0.082434 -0.086760 -0.010671 3.271294 5.269351 10.269076 0.082992 3.591719 17.200086 -2.602891 -3.505497 -6.086103 -0.063330 -0.899836 0.151360 
22.992598 -40.104630 83.174332 0.495723 0.988291 -106.134023 6.781679 0.445457 1.344276 2.928284 0.119145 0.488925 2.928288 0.119145 0.488924 2.196310 0.087018 0.367274 21.408232 -2.145915 -2.301290 3.524520 -3.266175 -4.830426 -4.801030 -9.771382 -2.468644 -8.142782 -48.327488 -17.222016 26.939325 -11.060327 13.851499 -22.876928 28.926493 31.138382 -1.438616 7.920030 -3.332334 -34.573779 37.702074 18.910291 45.057105 11.516261 -47.423366 -6.959016 -25.062618 -50.763711 -5.278808 -2.979906 1.622697 10.546991 -3.144050 -12.718812 -2.260913 -0.259370 10.516078 -0.063578 -0.105488 -0.006032 3.107904 5.328820 10.144366 0.165668 3.585644 17.183900 -2.410717 -3.221666 -6.466299 -0.059319 -0.929340 0.152959 
23.089474 -40.049442 83.163216 0.293842 0.999435 -105.666237 6.793742 0.477843 1.191350 2.928323 0.129683 0.412287 2.928321 0.129683 0.412290 2.196330 0.095289 0.309847 21.471133 -2.068997 -2.317301 3.644715 -3.123025 -4.835776 -5.002247 -9.836447 -2.387177 -8.899015 -48.723342 -18.215947 24.699415 -10.699000 12.230599 -22.199904 27.231276 29.660158 -1.334662 7.862692 -3.270287 -35.636218 38.522407 17.807167 43.963284 12.068013 -48.082233 -7.473238 -25.098666 -50.271162 -5.542035 -2.764838 1.343332 10.962833 -3.308068 -12.918931 -2.593036 -0.101239 10.492674 -0.025978 -0.145574 -0.003272 2.956902 5.402489 10.012061 0.273024 3.576140 17.206339 -2.215745 -2.909848 -6.857115 -0.062152 -0.963211 0.155915 
23.171036 -40.005424 83.148567 0.039685 1.035213 -105.204960 6.801869 0.558442 1.028839 2.927473 0.149988 0.334836 2.927475 0.149988 0.334839 2.195687 0.110890 0.251853 21.530228 -2.005794 -2.321255 3.757208 -3.008303 -4.823263 -4.880485 -9.776679 -2.471093 -10.313594 -49.492326 -19.543528 23.257243 -9.682199 10.834315 -20.556960 25.701689 28.257937 -1.128160 7.845411 -3.330058 -36.479146 39.521568 16.574207 42.648705 12.630207 -48.618550 -7.804826 -25.133238 -49.802461 -5.773902 -2.495117 0.928453 11.370097 -3.485362 -13.041480 -3.080354 0.067975 10.273679 0.102145 -0.178175 -0.014778 2.820180 5.530692 9.884797 0.400995 3.574753 17.237266 -2.017026 -2.587859 -7.310776 -0.076355 -1.001896 0.172185 
23.239494 -39.958889 83.129265 -0.237207 1.098467 -104.799656 6.825228 0.664568 0.895844 2.919703 0.177651 0.256108 2.919703 0.177650 0.256105 2.189846 0.132018 0.192933 21.593853 -1.947815 -2.310851 3.877828 -2.907367 -4.785973 -4.600631 -9.698803 -2.557333 -12.084826 -49.852673 -21.133066 22.571310 -9.273361 9.702418 -19.192029 25.214207 27.548361 -0.834276 7.846867 -3.413979 -37.058236 40.720908 15.176945 41.190053 13.159154 -49.055474 -8.025551 -25.155348 -49.332646 -5.947272 -2.163293 0.442878 11.731967 -3.686614 -13.291601 -3.584640 0.264731 10.494058 0.220757 -0.225180 -0.025414 2.705144 5.696296 9.778080 0.539619 3.570977 17.234654 -1.861414 -2.254472 -7.664819 -0.053907 -1.042036 0.216868 
23.291513 -39.937332 83.110718 -0.489764 1.124805 -104.407330 6.798549 0.748887 0.734658 2.902190 0.208442 0.177806 2.902190 0.208442 0.177806 2.176698 0.155492 0.134347 21.679850 -1.891475 -2.281673 4.039862 -2.815480 -4.714346 -4.687645 -9.767351 -2.529881 -12.843065 -49.608620 -22.128430 22.687008 -9.362337 8.753494 -19.075096 24.922155 27.212783 -0.723941 7.970234 -3.583324 -37.247924 41.876009 13.731878 39.795513 13.612217 -49.409530 -8.307259 -25.165002 -48.841071 -6.161748 -1.869592 -0.115447 12.135603 -3.880585 -13.443320 -4.153165 0.491800 10.541623 0.329604 -0.284980 -0.047980 2.579184 5.839781 9.637353 0.683546 3.560701 17.197141 -1.701961 -1.942151 -8.060226 -0.047131 -1.063922 0.268574 
23.337282 -39.877533 83.095795 -0.703330 1.151499 -104.079468 6.760492 0.819477 0.580951 2.880429 0.240572 0.102061 2.880426 0.240572 0.102061 2.160358 0.179953 0.077684 21.783749 -1.838834 -2.231460 4.234900 -2.736793 -4.604995 -4.951561 -9.837006 -2.553581 -12.708222 -49.485431 -22.559447 23.379487 -9.366125 8.151241 -19.290070 24.519681 26.788719 -0.662125 8.145043 -3.854005 -37.303911 42.995071 12.424046 38.563077 13.922226 -49.732848 -8.576945 -25.165764 -48.329432 -6.307411 -1.590383 -0.655561 12.495446 -4.055505 -13.214925 -4.735379 0.745050 10.419472 0.425164 -0.364842 -0.045578 2.447814 5.948361 9.476229 0.859518 3.540689 17.221772 -1.592650 -1.634019 -8.277708 -0.021817 -1.063690 0.316720 
23.369877 -39.813667 83.082413 -0.924997 1.173581 -103.794020 6.719263 0.920236 0.421346 2.868272 0.278507 0.037860 2.868269 0.278507 0.037862 2.151213 0.208708 0.029700 21.867429 -1.808354 -2.171899 4.391406 -2.700485 -4.485413 -4.777408 -9.803054 -2.648799 -12.771830 -49.752201 -22.933458 24.111708 -9.194936 7.941903 -18.719773 23.951846 26.282609 -0.596401 8.335542 -4.156620 -37.290763 44.087437 11.248427 37.548384 14.147116 -50.115946 -8.772016 -25.180389 -47.794563 -6.437835 -1.377039 -1.140561 12.770897 -4.214699 -12.971434 -5.269856 1.073026 10.025530 0.490714 -0.433439 -0.047300 2.303384 6.066770 9.256475 1.075417 3.506551 17.321530 -1.512155 -1.365857 -8.485806 -0.010699 -1.014972 0.332734 
23.395058 -39.726471 83.070137 -1.123716 1.215499 -103.598117 6.700072 1.024643 0.299001 2.865059 0.325484 -0.013213 2.865057 0.325484 -0.013211 2.148780 0.244182 -0.008383 21.926789 -1.794407 -2.105181 4.502120 -2.695539 -4.357979 -4.551846 -9.751536 -2.779773 -13.019461 -50.086802 -23.498508 24.791710 -8.937713 7.962483 -17.247288 23.018441 25.764723 -0.451140 8.451137 -4.394282 -37.256961 45.250666 10.106549 36.751964 14.394028 -50.498881 -8.919754 -25.208633 -47.288518 -6.578573 -1.180364 -1.408064 13.117061 -4.405456 -13.060929 -5.798038 1.342139 9.882786 0.507454 -0.459594 -0.053793 2.186547 6.155924 9.062537 1.303707 3.490062 17.439307 -1.455279 -1.117214 -8.698070 -0.000140 -0.957715 0.354138 
23.400625 -39.637802 83.060928 -1.300316 1.293565 -103.486225 6.697080 1.124013 0.186572 2.865991 0.378917 -0.064269 2.865996 0.378918 -0.064274 2.149444 0.284497 -0.046430 21.978207 -1.778974 -2.020856 4.598126 -2.692424 -4.198099 -4.496352 -9.750635 -2.809351 -13.349091 -50.123541 -24.253810 25.662339 -8.790091 8.039868 -15.778545 21.713562 25.416244 -0.090054 8.399350 -4.419498 -37.332291 46.632413 9.013619 36.179280 14.699607 -50.888584 -8.963989 -25.225898 -46.799083 -6.755748 -0.985289 -1.471877 13.595640 -4.670017 -13.379447 -6.311461 1.568745 9.930699 0.460266 -0.434177 -0.074575 2.109393 6.220856 8.891621 1.568446 3.494331 17.615270 -1.437291 -0.843656 -8.864167 0.002530 -0.926956 0.402159 
